<?xml version="1.0" standalone="no"?>
<!DOCTYPE svg PUBLIC "-//W3C//DTD SVG 20010904//EN"
 "http://www.w3.org/TR/2001/REC-SVG-20010904/DTD/svg10.dtd">
<svg version="1.0" xmlns="http://www.w3.org/2000/svg"
 width="300.000000pt" height="300.000000pt" viewBox="0 0 300.000000 300.000000"
 preserveAspectRatio="xMidYMid meet">
<metadata>
Created by potrace 1.13, written by Peter Selinger 2001-2015
</metadata>
<g transform="translate(0.000000,300.000000) scale(0.100000,-0.100000)"
fill="#000000" stroke="none">
<path d="M0 1500 l0 -1500 285 0 285 0 0 138 c0 77 3 207 7 290 l6 151 -109 3
-109 3 1 25 c1 14 2 98 3 188 l1 162 104 0 105 0 4 103 c2 56 1 415 -2 797 -3
382 -6 795 -6 918 l0 222 -287 0 -288 0 0 -1500z"/>
<path d="M910 2936 c0 -3 35 -29 78 -60 146 -102 310 -302 387 -469 46 -103
102 -279 122 -389 24 -131 24 -421 0 -540 -31 -156 -106 -346 -184 -472 l-31
-50 51 -23 c88 -41 141 -104 172 -204 13 -43 19 -125 26 -389 9 -298 12 -354
22 -339 7 12 -13 652 -22 699 -23 110 -82 195 -165 237 -28 14 -53 27 -54 28
-2 2 12 31 32 64 110 188 170 382 184 600 20 288 -31 556 -152 801 -95 192
-263 381 -438 493 -16 10 -28 15 -28 13z"/>
<path d="M920 1725 c0 -459 3 -695 10 -695 18 0 124 152 157 225 153 336 106
809 -111 1103 -25 34 -48 62 -51 62 -3 0 -5 -313 -5 -695z"/>
<path d="M933 584 c-10 -4 -13 -73 -13 -295 l0 -289 134 0 133 0 -4 278 c-4
223 -8 280 -19 292 -11 11 -41 16 -117 17 -56 1 -108 0 -114 -3z"/>
</g>
</svg>
